<?xml version="1.0" standalone="no"?>
<!DOCTYPE svg PUBLIC "-//W3C//DTD SVG 20010904//EN"
 "http://www.w3.org/TR/2001/REC-SVG-20010904/DTD/svg10.dtd">
<svg version="1.0" xmlns="http://www.w3.org/2000/svg"
 width="300.000000pt" height="158.000000pt" viewBox="0 0 300.000000 158.000000"
 preserveAspectRatio="xMidYMid meet">
<metadata>
Created by potrace 1.10, written by Peter Selinger 2001-2011
</metadata>
<g transform="translate(0.000000,158.000000) scale(0.100000,-0.100000)"
fill="#000000" stroke="none">
<path d="M285 830 l0 -180 183 0 182 0 0 180 0 180 -182 0 -183 0 0 -180z
m321 139 c11 -19 10 -267 -2 -279 -7 -7 -60 -10 -145 -8 l-134 3 -3 134 c-1
74 0 141 2 148 7 17 271 19 282 2z"/>
<path d="M356 921 c-15 -16 -15 -24 -1 -90 19 -90 59 -133 93 -99 9 9 15 9 24
0 36 -36 80 8 100 101 21 96 16 101 -105 103 -80 2 -98 0 -111 -15z m76 -28
c-5 -10 -7 -34 -4 -53 l6 -35 11 50 c16 72 42 74 51 4 5 -40 9 -48 16 -34 6 9
7 32 4 51 -6 32 -5 34 20 34 23 0 25 -3 20 -22 -4 -13 -12 -49 -18 -80 -10
-49 -15 -58 -33 -58 -18 0 -24 9 -32 43 l-10 42 -8 -42 c-6 -36 -11 -43 -30
-43 -19 0 -24 8 -34 58 -6 31 -14 67 -17 80 -6 20 -3 22 30 22 32 0 35 -2 28
-17z"/>
<path d="M700 830 l0 -180 180 0 180 0 0 180 0 180 -180 0 -180 0 0 -180z
m325 0 l0 -145 -145 0 -145 0 -2 139 c-1 77 0 143 3 148 3 5 69 7 147 6 l142
-3 0 -145z"/>
<path d="M829 927 c-26 -20 -39 -53 -39 -102 0 -40 5 -52 31 -76 40 -37 77
-38 111 -1 47 50 45 142 -5 177 -26 18 -76 19 -98 2z m92 -34 c22 -26 18 -112
-5 -129 -49 -35 -96 -4 -96 63 0 62 14 83 54 83 19 0 40 -7 47 -17z"/>
<path d="M864 866 c-8 -22 0 -81 11 -81 6 0 11 21 13 48 3 45 -12 65 -24 33z"/>
<path d="M1110 830 l0 -180 180 0 179 0 3 180 3 180 -182 0 -183 0 0 -180z
m325 0 l0 -145 -134 -3 c-86 -2 -138 1 -145 8 -14 14 -17 248 -4 273 8 16 23
17 146 15 l137 -3 0 -145z"/>
<path d="M1219 923 c-10 -12 -14 -41 -13 -91 1 -94 15 -111 89 -110 74 1 86
16 81 99 -6 102 -20 119 -99 119 -30 0 -49 -6 -58 -17z m125 -35 c8 -13 8 -23
0 -35 -8 -13 -7 -26 2 -48 20 -46 17 -57 -13 -53 -23 2 -27 8 -28 32 0 16 -6
31 -14 34 -11 4 -12 -3 -7 -32 7 -34 6 -36 -21 -36 l-28 0 0 80 0 81 49 -3
c33 -2 52 -9 60 -20z"/>
<path d="M1528 830 l3 -180 179 0 180 0 0 180 0 180 -182 0 -183 0 3 -180z
m327 0 l0 -145 -145 0 -145 0 -3 134 c-1 74 0 141 2 148 4 11 37 13 148 11
l143 -3 0 -145z"/>
<path d="M1637 923 c-25 -29 -25 -163 1 -186 39 -36 132 -5 153 51 14 37 3
106 -21 127 -11 10 -41 20 -67 22 -39 4 -52 1 -66 -14z m117 -35 c23 -33 20
-87 -6 -115 -26 -27 -108 -34 -108 -9 0 8 5 18 10 21 6 3 10 26 10 51 0 24 -4
44 -10 44 -5 0 -10 7 -10 15 0 11 12 15 49 15 40 0 53 -4 65 -22z"/>
<path d="M1700 830 c0 -27 2 -50 5 -50 13 0 26 45 20 71 -10 46 -25 34 -25
-21z"/>
<path d="M1940 830 l0 -180 180 0 180 0 0 180 0 180 -180 0 -180 0 0 -180z
m325 0 l0 -145 -145 0 -145 0 -3 134 c-1 74 0 141 2 148 4 11 37 13 148 11
l143 -3 0 -145z"/>
<path d="M2056 924 c-12 -11 -16 -36 -16 -93 0 -91 14 -111 74 -111 79 0 112
57 60 105 -21 19 -25 30 -20 51 13 52 -59 87 -98 48z m66 -79 c-3 -45 -1 -65
7 -65 6 0 11 7 11 15 0 8 7 15 15 15 10 0 15 -10 15 -30 0 -30 -1 -30 -55 -30
-42 0 -55 3 -55 15 0 8 5 15 10 15 6 0 10 23 10 50 0 28 -4 50 -10 50 -5 0
-10 7 -10 15 0 10 10 15 34 15 l34 0 -6 -65z"/>
<path d="M2350 830 l0 -180 183 0 182 0 0 180 0 180 -182 0 -183 0 0 -180z
m325 0 l0 -145 -142 -3 c-143 -3 -143 -2 -144 20 -6 101 -4 246 3 261 8 16 23
17 146 15 l137 -3 0 -145z"/>
<path d="M2476 927 c-27 -20 -28 -158 -1 -187 28 -31 97 -28 125 7 13 17 18
32 13 42 -4 9 -6 42 -5 73 2 48 0 59 -17 67 -28 15 -94 14 -115 -2z m114 -42
c0 -19 -5 -25 -21 -25 -11 0 -17 5 -14 10 3 6 -1 10 -9 10 -9 0 -16 -9 -16
-20 0 -11 7 -20 15 -20 8 0 15 -4 15 -10 0 -5 -7 -10 -15 -10 -8 0 -15 -9 -15
-20 0 -23 18 -27 26 -5 11 27 34 17 34 -15 0 -30 -1 -30 -52 -30 l-53 0 0 80
0 80 53 0 c49 0 52 -2 52 -25z"/>
<path d="M931 509 c-16 -47 -15 -68 3 -44 12 16 16 17 30 6 19 -16 20 -6 5 38
-14 39 -24 39 -38 0z"/>
<path d="M1030 500 c0 -35 3 -40 23 -40 25 0 47 17 47 36 0 19 -29 44 -51 44
-16 0 -19 -7 -19 -40z m48 -2 c-5 -32 -28 -35 -28 -4 0 17 5 26 16 26 10 0 14
-7 12 -22z"/>
<path d="M1120 504 c-7 -19 -9 -38 -6 -41 3 -4 6 -1 6 5 0 16 27 15 33 0 11
-31 15 2 5 35 -14 46 -23 47 -38 1z"/>
<path d="M1230 540 c-1 -3 -4 -22 -5 -42 -2 -37 -1 -38 29 -37 23 1 25 3 9 6
-17 3 -23 13 -26 41 -2 20 -5 35 -7 32z"/>
<path d="M1270 531 c0 -6 5 -13 10 -16 6 -3 10 -17 10 -31 0 -35 13 -29 32 16
9 22 13 40 8 40 -4 0 -11 -8 -15 -17 -6 -17 -7 -17 -19 0 -14 19 -26 22 -26 8z"/>
<path d="M1386 505 c3 -22 7 -42 9 -44 8 -7 25 11 26 27 0 12 3 11 9 -5 11
-27 30 -30 30 -5 0 9 3 28 5 42 5 22 3 21 -9 -5 -13 -26 -15 -27 -16 -8 0 33
-18 38 -26 7 l-7 -27 -13 29 c-14 29 -14 29 -8 -11z"/>
<path d="M1492 528 c-30 -30 3 -87 39 -68 32 17 19 80 -16 80 -6 0 -16 -5 -23
-12z m38 -33 c0 -16 -6 -25 -15 -25 -9 0 -15 9 -15 25 0 16 6 25 15 25 9 0 15
-9 15 -25z"/>
<path d="M1570 500 c0 -22 4 -40 10 -40 5 0 7 7 4 15 -4 8 -2 15 4 15 5 0 12
-7 16 -15 9 -24 21 -17 21 13 0 35 -12 52 -36 52 -16 0 -19 -7 -19 -40z"/>
<path d="M1650 499 c0 -38 1 -40 28 -37 47 5 39 78 -9 78 -16 0 -19 -8 -19
-41z m38 -1 c-5 -32 -28 -35 -28 -4 0 17 5 26 16 26 10 0 14 -7 12 -22z"/>
<path d="M1760 520 c-16 -29 10 -71 40 -63 24 6 27 43 4 43 -11 0 -14 -5 -10
-16 4 -10 1 -14 -6 -12 -7 3 -13 13 -13 24 0 14 6 18 23 16 30 -3 24 22 -6 26
-13 2 -25 -5 -32 -18z"/>
<path d="M1850 514 c-6 -16 -13 -35 -15 -41 -2 -7 0 -13 5 -13 6 0 10 5 10 10
0 6 7 10 15 10 8 0 15 -4 15 -10 0 -5 4 -10 9 -10 11 0 -5 58 -20 74 -5 5 -13
-3 -19 -20z"/>
<path d="M1910 500 c0 -40 15 -55 23 -22 4 16 5 16 6 0 2 -28 20 -21 28 10 l7
27 7 -30 c6 -27 7 -26 8 13 1 48 -13 55 -27 15 l-10 -28 -11 28 c-15 39 -31
33 -31 -13z"/>
<path d="M2017 533 c-4 -3 -7 -21 -7 -40 0 -31 2 -33 33 -32 23 1 26 3 10 6
-26 5 -31 23 -7 23 8 0 12 5 9 10 -4 6 -11 8 -16 5 -5 -4 -9 -1 -9 4 0 6 9 11
20 11 11 0 20 5 20 10 0 11 -43 14 -53 3z"/>
</g>
</svg>
